<mxfile host="app.diagrams.net" modified="2023-11-22T00:28:44.988Z" agent="Mozilla/5.0 (Macintosh; Intel Mac OS X 10_15_7) AppleWebKit/605.1.15 (KHTML, like Gecko) Version/16.6 Safari/605.1.15" version="22.1.3" etag="k-wC2uar2r8-92R-iqVA" type="github">
  <diagram name="Page-1" id="xanJDPaVtpuf2QOxGpdZ">
    <mxGraphModel>
      <root>
        <mxCell id="0" />
        <mxCell id="1" parent="0" />
      </root>
    </mxGraphModel>
  </diagram>
</mxfile>
